<svg width="35" height="40" viewBox="0 0 35 40" xmlns="http://www.w3.org/2000/svg">
  <!-- Shield outline -->
  <path d="M17.5 1 L33 7 L33 24 C33 31.5 17.5 39 17.5 39 C17.5 39 2 31.5 2 24 L2 7 Z" fill="#8B1538" stroke="#4A0E1F" stroke-width="0.8"/>
  
  <!-- Inner shield -->
  <path d="M17.5 3 L31 8 L31 23 C31 29.5 17.5 36 17.5 36 C17.5 36 4 29.5 4 23 L4 8 Z" fill="#A41E35"/>
  
  <!-- VERITAS banner background -->
  <ellipse cx="17.5" cy="15" rx="12" ry="3.5" fill="#ffffff"/>
  
  <!-- VERITAS text -->
  <text x="17.5" y="17" text-anchor="middle" fill="#8B1538" font-family="Times, serif" font-size="3.5" font-weight="bold">VERITAS</text>
  
  <!-- Three books representing the three divisions of knowledge -->
  <!-- Left book (VE) -->
  <rect x="7" y="20" width="5" height="10" fill="#ffffff" stroke="#8B1538" stroke-width="0.4"/>
  <text x="9.5" y="26" text-anchor="middle" fill="#8B1538" font-family="serif" font-size="2" font-weight="bold">VE</text>
  
  <!-- Middle book (RI) -->
  <rect x="13" y="18" width="5" height="12" fill="#ffffff" stroke="#8B1538" stroke-width="0.4"/>
  <text x="15.5" y="25" text-anchor="middle" fill="#8B1538" font-family="serif" font-size="2" font-weight="bold">RI</text>
  
  <!-- Right book (TAS) -->
  <rect x="19" y="20" width="5" height="10" fill="#ffffff" stroke="#8B1538" stroke-width="0.4"/>
  <text x="21.5" y="26" text-anchor="middle" fill="#8B1538" font-family="serif" font-size="2" font-weight="bold">TAS</text>
  
  <!-- Book binding details -->
  <line x1="9" y1="20" x2="9" y2="30" stroke="#8B1538" stroke-width="0.3"/>
  <line x1="11" y1="20" x2="11" y2="30" stroke="#8B1538" stroke-width="0.3"/>
  <line x1="15" y1="18" x2="15" y2="30" stroke="#8B1538" stroke-width="0.3"/>
  <line x1="16" y1="18" x2="16" y2="30" stroke="#8B1538" stroke-width="0.3"/>
  <line x1="21" y1="20" x2="21" y2="30" stroke="#8B1538" stroke-width="0.3"/>
  <line x1="23" y1="20" x2="23" y2="30" stroke="#8B1538" stroke-width="0.3"/>
</svg>
